<svg width="80" height="80" viewBox="0 0 80 80" fill="none" xmlns="http://www.w3.org/2000/svg">
<circle cx="40" cy="40" r="40" fill="#0960A9"/>
<path d="M31.7533 28.7828C31.9448 28.587 31.9431 28.2736 31.7495 28.0799L31.3879 27.7179L29.2554 25.5832L26.2481 22.5726L24.0319 20.3541C23.8366 20.1586 23.5197 20.1586 23.3244 20.3541L21.1878 22.493C20.9928 22.6882 20.9928 23.0045 21.1878 23.1997L23.4047 25.419L24.389 26.4042H15.859H14.4999C14.2238 26.4042 13.9999 26.6281 13.9999 26.9042V29.9547C13.9999 30.2309 14.2238 30.4547 14.4999 30.4547H15.859H24.389L21.1878 33.6593C20.9928 33.8545 20.9928 34.1708 21.1878 34.366L23.326 36.5065C23.5207 36.7014 23.8363 36.7021 24.0319 36.5081L29.5835 31.0021L31.7533 28.7828Z" fill="#FFDD00"/>
<path d="M63.5941 54.9769H60.5867C59.8212 57.659 57.306 59.6843 54.2986 59.6843C51.2913 59.6843 48.776 57.7138 48.0105 54.9769H39.9179H35.8717C35.1062 57.659 32.5909 59.6843 29.5836 59.6843C26.5762 59.6843 24.0609 57.7138 23.2954 54.9769H19.8506C18.5383 54.9769 17.4447 53.9369 17.4447 52.5685V49.5032C17.4447 48.4085 18.2103 47.4232 19.3038 47.1495V44.0295V43.6464V35.6548L22.0378 38.3916C22.4752 38.8295 23.022 39.0485 23.5688 39.0485C24.1703 39.0485 24.7171 38.8295 25.0998 38.3916L30.9505 32.5348L33.5205 29.9621C33.6298 29.8527 33.7392 29.7432 33.7939 29.579C34.3407 28.7032 34.2313 27.5537 33.4658 26.8421L33.083 26.459H39.9179H48.1745C49.5962 26.459 50.8538 27.1706 51.6193 28.2106C51.674 28.2653 51.7287 28.4295 51.838 28.4843L56.8685 36.0927L59.6025 36.5853C61.9537 36.5853 63.8675 38.5011 63.8675 40.8548V47.0948C65.0705 47.2043 66 48.299 66 49.5032V52.5685C66 53.8822 64.9611 54.9769 63.5941 54.9769ZM29.5836 49.8864C27.8338 49.8864 26.3028 51.419 26.3028 53.1706C26.3028 54.9222 27.7245 56.4548 29.5836 56.4548C31.4426 56.4548 32.8643 54.9222 32.8643 53.1706C32.8643 51.419 31.4426 49.8864 29.5836 49.8864ZM54.2986 49.8864C52.5489 49.8864 51.0179 51.419 51.0179 53.1706C51.0179 54.9222 52.4395 56.4548 54.2986 56.4548C56.0484 56.4548 57.5794 54.9222 57.5794 53.1706C57.5794 51.419 56.103 49.8864 54.2986 49.8864Z" fill="white"/>
</svg>
