<svg width="80" height="80" viewBox="0 0 80 80" fill="none" xmlns="http://www.w3.org/2000/svg">
<circle cx="40" cy="40" r="40" fill="#0960A9"/>
<g clip-path="url(#clip0)">
<path d="M45.6432 59.334C45.3988 59.334 45.1902 59.1573 45.15 58.9162L44.3726 54.2518C44.3325 54.0107 44.1239 53.834 43.8794 53.834H36.1205C35.876 53.834 35.6674 54.0107 35.6273 54.2518L34.8499 58.9162C34.8097 59.1573 34.6011 59.334 34.3567 59.334H33.1666C32.8905 59.334 32.6666 59.5578 32.6666 59.834V62.5006C32.6666 62.7768 32.8905 63.0006 33.1666 63.0006H46.8333C47.1094 63.0006 47.3333 62.7768 47.3333 62.5006V59.834C47.3333 59.5578 47.1094 59.334 46.8333 59.334H45.6432Z" fill="#FFDD00"/>
<path d="M35.0462 28.0867C36.5125 27.107 38.2364 26.584 39.9999 26.584C42.364 26.5867 44.6304 27.527 46.3021 29.1986C47.9737 30.8703 48.9141 33.1368 48.9167 35.5009C48.9167 37.2644 48.3937 38.9882 47.414 40.4545C46.4342 41.9208 45.0416 43.0637 43.4123 43.7386C41.783 44.4135 39.9902 44.59 38.2605 44.246C36.5308 43.9019 34.942 43.0527 33.695 41.8057C32.448 40.5587 31.5988 38.9699 31.2547 37.2402C30.9107 35.5105 31.0872 33.7177 31.7621 32.0884C32.437 30.4591 33.5799 29.0665 35.0462 28.0867ZM42.5093 33.5662C42.8519 33.7951 43.2547 33.9173 43.6667 33.9173C44.2192 33.9173 44.7491 33.6978 45.1399 33.3071C45.5306 32.9164 45.75 32.3865 45.75 31.834C45.75 31.4219 45.6279 31.0191 45.3989 30.6765C45.17 30.3339 44.8446 30.0669 44.464 29.9092C44.0833 29.7516 43.6644 29.7103 43.2603 29.7907C42.8561 29.8711 42.4849 30.0695 42.1936 30.3608C41.9022 30.6522 41.7038 31.0234 41.6234 31.4275C41.543 31.8317 41.5843 32.2506 41.742 32.6312C41.8996 33.0119 42.1667 33.3373 42.5093 33.5662Z" fill="white" stroke="#0960A9" stroke-width="0.5"/>
<path d="M58.3333 19H21.6667C20.6946 19.0012 19.7626 19.3878 19.0752 20.0752C18.3878 20.7626 18.0012 21.6946 18 22.6667V48.3333C18.0012 49.3054 18.3878 50.2374 19.0752 50.9248C19.7626 51.6122 20.6946 51.9988 21.6667 52H58.3333C59.3054 51.9988 60.2374 51.6122 60.9248 50.9248C61.6122 50.2374 61.9989 49.3054 62 48.3333V22.6667C61.9989 21.6946 61.6122 20.7626 60.9248 20.0752C60.2374 19.3878 59.3054 19.0012 58.3333 19ZM27.1667 25.8333C27.1667 26.1095 26.9428 26.3333 26.6667 26.3333H22.1667C21.8905 26.3333 21.6667 26.1095 21.6667 25.8333V23.1667C21.6667 22.8905 21.8905 22.6667 22.1667 22.6667H26.6667C26.9428 22.6667 27.1667 22.8905 27.1667 23.1667V25.8333ZM40 46.5C37.8244 46.5 35.6977 45.8549 33.8887 44.6462C32.0798 43.4375 30.6699 41.7195 29.8373 39.7095C29.0048 37.6995 28.7869 35.4878 29.2114 33.354C29.6358 31.2202 30.6834 29.2602 32.2218 27.7218C33.7602 26.1834 35.7202 25.1358 37.854 24.7114C39.9878 24.2869 42.1995 24.5048 44.2095 25.3373C46.2195 26.1699 47.9375 27.5798 49.1462 29.3887C50.3549 31.1977 51 33.3244 51 35.5C50.9967 38.4164 49.8367 41.2124 47.7746 43.2746C45.7124 45.3367 42.9164 46.4967 40 46.5Z" fill="white"/>
</g>
<defs>
<clipPath id="clip0">
<rect width="44" height="44" fill="white" transform="translate(18 19)"/>
</clipPath>
</defs>
</svg>
