<svg width="80" height="80" viewBox="0 0 80 80" fill="none" xmlns="http://www.w3.org/2000/svg">
<circle cx="40" cy="40" r="40" fill="#0960A9"/>
<rect x="23.582" y="23.6953" width="18.957" height="8.08594" fill="#FFDD00"/>
<path d="M30.3036 23.6953L27.6071 31.7813H30.1575L32.8522 23.6953H30.3036Z" fill="white"/>
<path d="M63.6524 23.6953H62.3047V22.3477C62.3047 21.6028 61.702 21 60.9571 21C60.2122 21 59.6094 21.6028 59.6094 22.3477V23.6953H35.6943L32.9994 31.7813H65V25.043C65 24.2981 64.3973 23.6953 63.6524 23.6953Z" fill="white"/>
<path d="M23.043 23.6953C22.2981 23.6953 21.6953 24.2981 21.6953 25.043C21.6953 25.7865 21.0899 26.3906 20.3477 26.3906C19.6028 26.3906 19 26.9934 19 27.7383V31.7813H24.7664L27.4617 23.6953H23.043Z" fill="white"/>
<path d="M19 34.4766V35.8242C19 36.5691 19.6028 37.1719 20.3477 37.1719C21.0899 37.1719 21.6953 37.776 21.7084 38.3287L19.4707 54.1189C19.1239 56.5495 21.001 58.7344 23.4563 58.7344H28.7574C30.7842 58.7344 32.5082 57.2169 32.7687 55.2047L33.6979 47.9531H39.2149C41.4442 47.9531 43.2578 46.1395 43.2578 43.9102V39.8672H58.2617C58.7724 39.8672 59.2382 39.579 59.4673 39.1223L61.7901 34.4766C29.1818 34.4766 36.454 34.4766 19 34.4766ZM35.1719 45.2578C33.6847 45.2578 32.4766 44.0483 32.4766 42.5625C32.4766 41.0767 33.6847 39.8672 35.1719 39.8672H35.2614C34.8902 41.0566 34.8237 42.3307 35.1509 43.5574C35.3124 44.1675 35.5852 44.7269 35.9037 45.2578H35.1719ZM40.5625 43.9102C40.5625 44.5509 40.1039 45.0629 39.5047 45.1992C38.6529 44.6674 38.0165 43.8457 37.754 42.8665C37.4836 41.8477 37.6473 40.7734 38.1705 39.8672H40.5625V43.9102Z" fill="white"/>
</svg>
