<svg width="80" height="80" viewBox="0 0 80 80" fill="none" xmlns="http://www.w3.org/2000/svg">
<circle cx="40" cy="40" r="40" fill="#0960A9"/>
<rect x="47.9783" y="27.5498" width="13.1856" height="4.56424" fill="#FFDD00"/>
<path d="M64.5 24H15.5C14.6716 24 14 24.6716 14 25.5V30.9999C14 32.6568 15.3431 33.9999 17 33.9999H63C64.6569 33.9999 66 32.6568 66 30.9999V25.5C66 24.6716 65.3284 24 64.5 24ZM52 32H50C49.1716 32 48.5001 31.3283 48.5001 30.5C48.5001 29.6717 49.1717 29 50 29H52C52.8285 29 53.5 29.6717 53.5 30.5C53.5 31.3283 52.8284 32 52 32ZM58 32H56.0001C55.1716 32 54.5001 31.3283 54.5001 30.5C54.5001 29.6717 55.1717 29 56.0001 29H58C58.8285 29 59.5 29.6717 59.5 30.5C59.5 31.3283 58.8284 32 58 32Z" fill="white"/>
<path d="M40 43C36.4159 43 33.5 45.9159 33.5 49.5C33.5 53.0841 36.4159 56 40 56C43.5841 56 46.5 53.0841 46.5 49.5C46.5 45.9159 43.5841 43 40 43ZM40 52.6C38.2906 52.6 36.9 51.2093 36.9 49.5C36.9 47.7907 38.2906 46.4 40 46.4C41.7094 46.4 43.1 47.7907 43.1 49.5C43.1 51.2093 41.7094 52.6 40 52.6Z" fill="white"/>
<path d="M21.5002 37C19.8434 37 18.5002 38.3431 18.5002 40V43.5C18.5002 49.2429 20.7366 54.642 24.7974 58.7028C28.8582 62.7636 34.2574 65 40.0002 65C45.7431 65 51.1422 62.7636 55.203 58.7028C59.2638 54.642 61.5002 49.2429 61.5002 43.5V40C61.5002 38.3431 60.157 37 58.5002 37H21.5002ZM40.0002 59C34.7619 59 30.5003 54.7383 30.5003 49.5C30.5003 44.2617 34.7619 40.0001 40.0002 40.0001C45.2385 40.0001 49.5002 44.2617 49.5002 49.5C49.5002 54.7383 45.2385 59 40.0002 59Z" fill="white"/>
</svg>
