<svg width="80" height="80" viewBox="0 0 80 80" fill="none" xmlns="http://www.w3.org/2000/svg">
<circle cx="40" cy="40" r="40" fill="#0960A9"/>
<path d="M32.3844 49.2965V48.4375C32.3844 46.2649 34.1709 44.4965 36.3146 44.4965H36.5188L37.2334 42.2733C37.948 40.1007 39.5813 38.4333 41.623 37.6754L41.4188 37.0691C40.7552 35.0481 38.9177 33.7344 36.774 33.7344H25.6469C23.5032 33.7344 21.6657 35.0986 21.0021 37.0691L19.7261 40.9596H17.7865C16.9188 40.9596 16.2552 41.6165 16.2552 42.4754V43.3344C16.2552 44.1933 16.9698 44.8502 17.7865 44.8502H18.348C18.0417 46.2649 17.8886 47.6796 17.8886 49.1449V56.5217C17.8886 57.3807 18.5521 58.0375 19.4198 58.0375H21.9719C22.8396 58.0375 23.5032 57.3807 23.5032 56.5217V54.147H34.0177C34.0177 53.5912 34.0688 53.086 34.1709 52.5302C33.099 51.8228 32.3844 50.6607 32.3844 49.2965ZM25.698 50.0038H22.5844C22.074 50.0038 21.6657 49.5996 21.6657 49.0438V47.5786C21.6657 47.0228 22.1761 46.5681 22.7886 46.6691L25.698 47.1238C26.0552 47.1744 26.3615 47.4775 26.4636 47.8312L26.6677 48.8417C26.7698 49.4481 26.3105 50.0038 25.698 50.0038Z" fill="white"/>
<path d="M63.2135 46.9216H61.274L59.9979 43.031C59.3344 41.01 57.4969 39.6963 55.3531 39.6963H44.175C42.0312 39.6963 40.1937 41.0605 39.5302 43.031L38.2542 46.9216H36.3146C35.4469 46.9216 34.7833 47.5784 34.7833 48.4373V49.2963C34.7833 50.1552 35.4469 50.8121 36.3146 50.8121H36.876C36.5698 52.2268 36.4167 53.6416 36.4167 55.1068V62.4331C36.4167 63.2921 37.0802 63.9489 37.9479 63.9489H40.5C41.3677 63.9489 42.0312 63.2921 42.0312 62.4331V60.1089H57.4969V62.4331C57.4969 63.2921 58.1604 63.9489 59.0281 63.9489H61.5802C62.4479 63.9489 63.1115 63.2921 63.1115 62.4331V55.1068C63.1115 53.6416 62.9583 52.2268 62.6521 50.8121H63.2135C64.0812 50.8121 64.7448 50.1552 64.7448 49.2963V48.4373C64.7448 47.5784 64.0812 46.9216 63.2135 46.9216ZM44.226 55.9152H41.1125C40.6021 55.9152 40.1427 55.511 40.1427 54.9552V53.49C40.1427 52.9342 40.6531 52.4794 41.2146 52.5805L44.124 53.0352C44.5323 53.0858 44.8385 53.3889 44.8896 53.7426L45.0937 54.7531C45.2979 55.3594 44.8385 55.9152 44.226 55.9152ZM59.3854 55.0058C59.3854 55.511 58.9771 55.9658 58.4156 55.9658H55.3021C54.6896 55.9658 54.2302 55.41 54.3833 54.8542L54.5875 53.8437C54.6896 53.49 54.9958 53.1868 55.3531 53.1363L58.2625 52.6816C58.824 52.5805 59.3344 53.0352 59.3344 53.591V55.0058H59.3854Z" fill="white"/>
<path d="M40.234 23.0732C36.4476 23.0732 32.8459 24.8681 30.6011 27.8749C30.0802 28.572 30.2324 29.5532 30.9405 30.066C31.6499 30.5788 32.6459 30.4296 33.1662 29.7318C34.8142 27.525 37.4563 26.2079 40.234 26.2079C43.3384 26.2079 46.1487 27.7739 47.7515 30.3976C48.0508 30.8866 48.5774 31.1575 49.1174 31.1575C49.397 31.1575 49.6804 31.0847 49.937 30.933C50.6903 30.4873 50.933 29.5237 50.4808 28.782C48.3284 25.2606 44.4025 23.0732 40.234 23.0732Z" fill="#FFDD00"/>
<path d="M26.8785 24.61C30.2834 21.2743 35.5647 19.033 40.0197 19.033C45.9375 19.033 51.3137 22.2989 54.017 25.5363C54.3289 25.9105 54.7888 26.1053 55.2525 26.1053C55.5992 26.1053 55.9485 25.9967 56.2401 25.7728C56.9221 25.2494 57.0322 24.2946 56.4862 23.6413C52.6094 18.999 46.1469 16 40.0197 16C34.6866 16 28.641 18.5471 24.618 22.4887C24.0069 23.0875 24.0177 24.0471 24.6421 24.6331C25.2659 25.219 26.2673 25.2093 26.8785 24.61Z" fill="#FFDD00"/>
</svg>
