<svg width="80" height="80" viewBox="0 0 80 80" fill="none" xmlns="http://www.w3.org/2000/svg">
<circle cx="40" cy="40" r="40" fill="#0960A9"/>
<path d="M52.1683 32.8053H50.7765V31.478C50.7765 30.431 49.9919 29.5819 48.9449 29.5819H46.48C45.4329 29.5819 44.5194 30.431 44.5194 31.478V32.8053H38.4518V23.4196C38.4518 21.6919 37.0508 20.291 35.3233 20.291C33.5953 20.291 32.1947 21.6919 32.1947 23.4196V32.8053H30.9319C29.889 32.8053 28.9713 33.6586 28.9713 34.7014V65.2287C28.9713 66.2716 29.889 67.1249 30.9319 67.1249H52.1683C53.2111 67.1249 53.9999 66.2716 53.9999 65.2287V34.7014C54.0001 33.6586 53.2111 32.8053 52.1683 32.8053ZM50.7767 46.543C50.7767 47.6476 49.8813 48.543 48.7767 48.543H34.0053C32.9007 48.543 32.0053 47.6476 32.0053 46.543V41.0625C32.0053 39.9579 32.9007 39.0625 34.0053 39.0625H41.391H48.7767C49.8813 39.0625 50.7767 39.9579 50.7767 41.0625V46.543Z" fill="white"/>
<path d="M35.2289 17.2572C36.0666 17.2572 36.7458 16.578 36.7458 15.7403V12.5169C36.7458 11.6792 36.0666 11 35.2289 11C34.3912 11 33.712 11.6792 33.712 12.5169V15.7403C33.712 16.578 34.3912 17.2572 35.2289 17.2572Z" fill="#FFDD00"/>
<path d="M30.8688 19.0622C31.4612 18.4697 31.4612 17.5095 30.8688 16.9168L28.5895 14.6375C27.997 14.0453 27.0368 14.0453 26.4443 14.6375C25.8519 15.23 25.8519 16.1904 26.4443 16.7829L28.7236 19.0622C29.0199 19.3584 29.4079 19.5065 29.7962 19.5065C30.1845 19.5063 30.5727 19.3582 30.8688 19.0622Z" fill="#FFDD00"/>
<path d="M40.7901 19.5065C41.1785 19.5065 41.5666 19.3584 41.8628 19.0622L44.1421 16.7829C44.7344 16.1904 44.7344 15.23 44.1421 14.6375C43.5496 14.0453 42.5894 14.0453 41.9968 14.6375L39.7173 16.917C39.125 17.5095 39.125 18.4699 39.7173 19.0624C40.0137 19.3584 40.4018 19.5065 40.7901 19.5065Z" fill="#FFDD00"/>
</svg>
