<svg width="80" height="80" viewBox="0 0 80 80" fill="none" xmlns="http://www.w3.org/2000/svg">
<circle cx="40" cy="40" r="40" fill="#0960A9"/>
<path d="M65.4438 36.5501C57.4135 29.5438 49.3858 22.5374 41.3566 15.5306C40.545 14.8231 39.5133 14.8231 38.7017 15.5306C30.6724 22.5374 22.6432 29.5438 14.6129 36.5501C12.7862 38.1441 15.452 40.7876 17.2667 39.2045C24.8551 32.5839 32.4418 25.9633 40.0286 19.3427C47.6159 25.9633 55.2022 32.5839 62.7895 39.204C64.6047 40.7881 67.2705 38.1441 65.4438 36.5501Z" fill="#FFDD00"/>
<path d="M59.9399 41.5454C59.9399 40.9637 59.6866 40.4107 59.2461 40.0308L41.187 24.4567C40.432 23.8056 39.3127 23.81 38.5628 24.467L20.7989 40.0316C20.3655 40.4114 20.1169 40.9596 20.1169 41.5359V59.0001C20.1169 60.1046 21.0124 61.0001 22.1169 61.0001H42.3364C42.8289 61.0001 43.2281 60.6008 43.2281 60.1083V60.0724V52.3779V50.6027C43.2281 47.8333 45.4041 45.5668 48.0637 45.5668C50.7217 45.5668 52.8993 47.8333 52.8993 50.6027V52.3779V60.0714V60.1062C52.8993 60.5996 53.2992 60.9995 53.7925 60.9995H57.939C59.0435 60.9995 59.9389 60.1042 59.939 58.9996L59.9399 41.5454Z" fill="white"/>
</svg>
