<svg width="80" height="80" viewBox="0 0 80 80" fill="none" xmlns="http://www.w3.org/2000/svg">
<circle cx="40" cy="40" r="40" fill="#0960A9"/>
<path d="M46.7998 17H28.49C26.568 17 25 18.568 25 20.49V61.51C25 63.432 26.568 65 28.49 65H46.7998C48.7218 65 50.2898 63.432 50.2898 61.51V20.49C50.2898 18.568 48.7218 17 46.7998 17ZM34.7113 19.5796H40.5279C40.9831 19.5796 41.3372 19.9336 41.3372 20.3888C41.3372 20.844 40.9831 21.1981 40.5279 21.1981H34.7113C34.2561 21.1981 33.902 20.844 33.902 20.3888C33.902 19.9336 34.2561 19.5796 34.7113 19.5796ZM37.5943 62.471C36.3298 62.471 35.2677 61.4088 35.2677 60.1444C35.2677 58.8799 36.3298 57.8177 37.5943 57.8177C38.8588 57.8177 39.921 58.8799 39.921 60.1444C39.921 61.4594 38.8588 62.471 37.5943 62.471ZM47.9631 54.7887C47.9631 55.0649 47.7393 55.2887 47.4631 55.2887H27.7761C27.4999 55.2887 27.2761 55.0649 27.2761 54.7887V24.2777C27.2761 24.0015 27.4999 23.7777 27.7761 23.7777H47.4631C47.7393 23.7777 47.9631 24.0015 47.9631 24.2777V54.7887Z" fill="white"/>
<path d="M54.5786 45.1258L54.8509 46.55H54.1975L54.5786 45.1258ZM55.0146 43.9346L54.6353 44.1642L54.0692 43.89C53.7624 43.7414 53.5254 43.3897 53.5254 43.0267C53.5254 42.5103 53.9434 42.0333 54.5829 42.0333C55.1943 42.0333 55.6404 42.4831 55.6404 43.0267C55.6404 43.3374 55.4521 43.6697 55.0146 43.9346ZM52.101 35.5167H52.1801V34.5167C52.1801 33.3353 53.2058 32.2967 54.5038 32.2967C55.8017 32.2967 56.8275 33.3353 56.8275 34.5167V36.7367H52.101V35.5167ZM46.1155 52H62.813C63.9682 52 65 51.0453 65 49.85V38.81C65 37.6147 63.9682 36.66 62.813 36.66H62.1511V34.44C62.1511 30.2471 58.6583 27 54.5038 27C50.3414 27 46.8564 30.3314 46.8564 34.44V36.66H46.1946C45.0393 36.66 44.0076 37.6147 44.0076 38.81V49.7961C43.8884 51.0798 45.0177 52 46.1155 52Z" fill="#FFDD00" stroke="#0960A9" stroke-width="2"/>
</svg>
